<svg id="Layer_1" data-name="Layer 1" xmlns="http://www.w3.org/2000/svg" viewBox="0 0 179 52"><defs><style>.cls-1,.cls-6{fill:#26addc;}.cls-2{fill:#eeb11e;}.cls-3{fill:#bbd132;}.cls-4{fill:#1f1a18;}.cls-5{fill:#d02276;}.cls-6{font-size:12px;font-family:TimesNewRomanPS-BoldMT, Times New Roman;font-weight:700;}.cls-7{fill:#fff;}.cls-8{fill:#231f20;}</style></defs><path class="cls-1" d="M36.26,31.84A47.82,47.82,0,0,1,21.7,40c-3.81,1.26-6,2-7.55.8-2.48-1.83-1.66-7-1.19-10a34.1,34.1,0,0,1,2.38-7.75,38.2,38.2,0,0,1,4.08-8.45c2.12-3.11,4.24-6.32,8.2-7.53a16.82,16.82,0,0,1,8,0,15.82,15.82,0,0,1,6.56,2.38,9.59,9.59,0,0,1,4.17,4.81,8.42,8.42,0,0,1,.25,4.09c-.2,1.41-.8,3.57-3.87,7.3A40.5,40.5,0,0,1,36.26,31.84Z"/><path class="cls-2" d="M14.93,19.67a60,60,0,0,0-4.51,16.7c-1.63-3.72-3.7-10.06-2.34-17,.7-3.63,1.89-5.16,2.73-6,3.19-3.18,7.89-2.83,9-2.72A59.54,59.54,0,0,0,14.93,19.67Z"/><path class="cls-3" d="M33.59,36.18A54.55,54.55,0,0,1,17,43.52a31.82,31.82,0,0,0,11.78,1.24,23.54,23.54,0,0,0,10.29-2.93c2.4-1.38,4.58-2.63,5.22-5.12.9-3.56-2.1-6.79-2.49-7.2A54.53,54.53,0,0,1,33.59,36.18Z"/><path class="cls-4" d="M31,35.59a49.71,49.71,0,0,1-14.44,5.82,27.55,27.55,0,0,1,4-7.17,26.2,26.2,0,0,1,6.13-5.73c2.88-1.89,5.11-3.35,8-3a9.19,9.19,0,0,1,5.49,2.95A49.22,49.22,0,0,1,31,35.59Z"/><path class="cls-5" d="M15.89,21.65a43,43,0,0,0-3.13,12.53,36.56,36.56,0,0,0-.11,4A27,27,0,0,0,20.24,32a25.88,25.88,0,0,0,4.4-7.29c1.23-3.18,3-7.82.78-11.22a7.35,7.35,0,0,0-3.28-2.59A46.38,46.38,0,0,0,15.89,21.65Z"/><text class="cls-6" transform="translate(55.5 29.69)">FREMAX<tspan class="cls-7" x="52.66" y="0"> </tspan><tspan class="cls-8" x="55.66" y="0">GRAPHICS</tspan></text></svg>